<?xml version="1.0" standalone="no"?>
<!DOCTYPE svg PUBLIC "-//W3C//DTD SVG 20010904//EN"
 "http://www.w3.org/TR/2001/REC-SVG-20010904/DTD/svg10.dtd">
<svg version="1.0" xmlns="http://www.w3.org/2000/svg"
 width="840.000000pt" height="592.000000pt" viewBox="0 0 840.000000 592.000000"
 preserveAspectRatio="xMidYMid meet">

<g transform="translate(0.000000,592.000000) scale(0.100000,-0.100000)"
fill="#000000" stroke="none">
<path d="M4864 4641 c-117 -71 -220 -273 -231 -452 -8 -119 18 -206 82 -277
65 -72 129 -95 250 -90 76 3 98 8 144 33 61 33 106 89 133 163 22 60 23 194 2
276 -35 139 -145 310 -225 351 -40 21 -118 19 -155 -4z m127 -328 c-11 -23
-10 -25 3 -13 14 11 18 7 31 -25 9 -20 19 -66 22 -102 6 -64 6 -65 -16 -58
-21 6 -21 5 -9 -15 12 -19 10 -24 -16 -47 -25 -21 -37 -24 -75 -20 -66 7 -81
30 -81 127 0 49 5 84 13 92 6 7 13 25 14 41 1 15 16 53 34 83 l32 56 30 -46
c26 -41 28 -50 18 -73z"/>
<path d="M4946 4185 c4 -8 11 -15 16 -15 6 0 5 6 -2 15 -7 8 -14 15 -16 15 -2
0 -1 -7 2 -15z"/>
<path d="M4986 4147 c3 -10 9 -15 12 -12 3 3 0 11 -7 18 -10 9 -11 8 -5 -6z"/>
<path d="M5685 4007 c-63 -30 -95 -99 -95 -206 0 -99 25 -196 74 -296 105
-213 282 -301 448 -223 212 99 262 321 114 509 -52 67 -177 153 -281 194 -84
34 -211 44 -260 22z m154 -243 c-17 -21 -29 -17 -29 11 0 23 2 24 21 15 16 -9
18 -14 8 -26z m11 -54 c-6 -11 -8 -25 -5 -30 3 -6 2 -10 -4 -10 -16 0 -18 34
-1 47 21 17 22 16 10 -7z"/>
<path d="M1702 3585 c-64 -28 -62 7 -62 -945 0 -945 -2 -913 60 -945 27 -14
76 -16 408 -13 371 3 378 3 429 27 53 24 134 100 155 146 6 14 14 25 18 25 4
0 56 -23 116 -51 449 -211 946 -405 1275 -499 409 -116 622 -93 1182 131 285
114 449 190 1272 589 88 43 169 88 180 100 16 17 20 35 19 84 -3 256 -337 439
-725 397 -158 -17 -538 -101 -750 -166 -12 -4 -19 8 -32 52 -55 198 -259 317
-717 418 -218 48 -323 83 -515 172 -276 129 -355 155 -505 169 -123 10 -420
-24 -603 -71 -25 -7 -29 -4 -43 31 -27 66 -80 121 -147 153 -50 24 -152 48
-517 121 -250 49 -457 90 -460 90 -3 -1 -20 -7 -38 -15z m528 -295 c195 -39
370 -77 388 -85 19 -9 39 -29 48 -48 16 -33 13 -58 -66 -608 -56 -393 -88
-583 -99 -604 -29 -51 -62 -56 -370 -53 l-276 3 -3 733 c-2 582 0 732 10 732
7 0 173 -32 368 -70z m1344 -235 c86 -18 148 -42 348 -136 203 -96 300 -129
538 -184 444 -102 601 -187 588 -316 -6 -69 -95 -99 -291 -99 -209 0 -513 55
-898 161 -97 27 -191 49 -209 49 -48 0 -90 -47 -90 -99 0 -66 34 -94 160 -130
492 -140 828 -198 1090 -188 161 6 219 19 318 73 89 48 490 160 776 216 256
49 515 8 603 -96 l26 -31 -274 -133 c-852 -416 -1250 -582 -1561 -653 -130
-29 -286 -23 -456 20 -302 76 -787 261 -1302 498 -102 47 -186 86 -188 88 -5
5 120 870 128 878 19 20 298 78 435 90 99 9 192 6 259 -8z"/>
<path d="M4990 3522 c-266 -74 -382 -272 -280 -478 100 -204 318 -239 521 -85
108 81 207 221 236 334 28 107 3 166 -90 214 -48 25 -64 27 -187 30 -107 2
-149 -1 -200 -15z m98 -229 c-37 -36 -37 -37 -58 -18 -25 23 -16 33 41 44 24
5 46 9 49 10 2 1 -12 -16 -32 -36z m136 31 c9 -3 16 -11 16 -16 0 -13 -89
-138 -98 -138 -3 0 -21 14 -39 32 l-33 32 47 48 c46 46 70 56 107 42z m-214
-59 c26 -28 26 -29 -50 -101 -40 -39 -46 -42 -57 -27 -7 9 -13 31 -13 48 0 37
14 58 55 84 39 25 38 25 65 -4z m110 -117 c0 -13 -87 -59 -124 -65 -21 -3 -42
-1 -50 6 -11 9 -2 22 48 71 l61 59 33 -31 c17 -18 32 -35 32 -40z"/>
</g>
</svg>
