<?xml version="1.0" encoding="UTF-8"?>
<svg xmlns="http://www.w3.org/2000/svg" xmlns:xlink="http://www.w3.org/1999/xlink" width="250px" height="150px" viewBox="0 0 250 150" version="1.1">
<g id="surface1">
<path style=" stroke:none;fill-rule:nonzero;fill:rgb(0%,0%,0%);fill-opacity:1;" d="M 116.5 21.03125 C 110.398438 21.449219 105.148438 22.171875 98.800781 23.429688 C 52.550781 32.640625 27.699219 62.28125 43 90.089844 C 45.101562 93.929688 50.851562 100.710938 54.851562 104.101562 C 59 107.578125 68.25 113.21875 74.101562 115.828125 C 85.601562 120.898438 99.398438 124.320312 113.601562 125.578125 C 121.449219 126.269531 136.601562 126.03125 143.699219 125.128906 C 178.648438 120.628906 205 104.878906 212.601562 83.878906 C 213.550781 81.238281 213.699219 79.921875 213.75 73.800781 C 213.75 67.589844 213.601562 66.328125 212.601562 63.328125 C 204.851562 40.441406 173.800781 23.398438 135.5 21 C 129.949219 20.671875 121.800781 20.671875 116.5 21.03125 Z M 133.5 21.328125 C 150.851562 22.261719 165.550781 25.648438 179.101562 31.828125 C 196.449219 39.78125 208.351562 51.511719 212.300781 64.648438 C 213.699219 69.328125 213.601562 78.570312 212.101562 83.039062 C 207.550781 96.601562 195.148438 108.121094 176.449219 116.191406 C 167.351562 120.121094 152.449219 123.839844 141.449219 124.949219 C 134.75 125.640625 123.300781 125.851562 117 125.429688 C 104.601562 124.589844 91.898438 122.039062 81.75 118.351562 C 47.25 105.839844 31.351562 81.058594 43.050781 58.050781 C 50.449219 43.558594 68.699219 31.378906 92 25.378906 C 105.5 21.898438 119.449219 20.550781 133.5 21.328125 Z M 133.5 21.328125 "/>
<path style=" stroke:none;fill-rule:nonzero;fill:rgb(0%,0%,0%);fill-opacity:1;" d="M 121 23.820312 C 121 24.089844 121.351562 24.300781 121.800781 24.300781 C 122.25 24.300781 122.5 24.148438 122.398438 23.941406 C 122.101562 23.398438 121 23.308594 121 23.820312 Z M 121 23.820312 "/>
<path style=" stroke:none;fill-rule:nonzero;fill:rgb(0%,0%,0%);fill-opacity:1;" d="M 125.75 23.671875 C 125.398438 24.03125 126.351562 24.390625 127 24.148438 C 127.550781 23.941406 127.199219 23.398438 126.5 23.398438 C 126.25 23.398438 125.949219 23.519531 125.75 23.671875 Z M 125.75 23.671875 "/>
<path style=" stroke:none;fill-rule:nonzero;fill:rgb(0%,0%,0%);fill-opacity:1;" d="M 130.5 23.851562 C 130.5 24.089844 130.851562 24.300781 131.25 24.300781 C 131.648438 24.300781 132 24.089844 132 23.851562 C 132 23.609375 131.648438 23.398438 131.25 23.398438 C 130.851562 23.398438 130.5 23.609375 130.5 23.851562 Z M 130.5 23.851562 "/>
<path style=" stroke:none;fill-rule:nonzero;fill:rgb(0%,0%,0%);fill-opacity:1;" d="M 116.101562 24.058594 C 116.398438 24.601562 117.5 24.691406 117.5 24.179688 C 117.5 23.910156 117.148438 23.699219 116.699219 23.699219 C 116.25 23.699219 116 23.851562 116.101562 24.058594 Z M 116.101562 24.058594 "/>
<path style=" stroke:none;fill-rule:nonzero;fill:rgb(0%,0%,0%);fill-opacity:1;" d="M 135.5 24.148438 C 135.5 24.421875 135.75 24.601562 136.050781 24.539062 C 136.351562 24.480469 136.601562 24.300781 136.601562 24.148438 C 136.601562 24 136.351562 23.820312 136.050781 23.761719 C 135.75 23.699219 135.5 23.878906 135.5 24.148438 Z M 135.5 24.148438 "/>
<path style=" stroke:none;fill-rule:nonzero;fill:rgb(0%,0%,0%);fill-opacity:1;" d="M 111.5 24.421875 C 111.5 24.691406 111.851562 24.898438 112.300781 24.898438 C 112.75 24.898438 113 24.75 112.898438 24.539062 C 112.601562 24 111.5 23.910156 111.5 24.421875 Z M 111.5 24.421875 "/>
<path style=" stroke:none;fill-rule:nonzero;fill:rgb(0%,0%,0%);fill-opacity:1;" d="M 140.351562 24.210938 C 139.75 24.539062 139.949219 24.898438 140.75 24.898438 C 141.148438 24.898438 141.5 24.691406 141.5 24.449219 C 141.5 23.96875 140.898438 23.851562 140.351562 24.210938 Z M 140.351562 24.210938 "/>
<path style=" stroke:none;fill-rule:nonzero;fill:rgb(0%,0%,0%);fill-opacity:1;" d="M 106.851562 24.808594 C 106.25 25.140625 106.449219 25.5 107.25 25.5 C 107.648438 25.5 108 25.289062 108 25.050781 C 108 24.570312 107.398438 24.449219 106.851562 24.808594 Z M 106.851562 24.808594 "/>
<path style=" stroke:none;fill-rule:nonzero;fill:rgb(0%,0%,0%);fill-opacity:1;" d="M 145 25.050781 C 145 25.320312 145.25 25.5 145.550781 25.441406 C 145.851562 25.378906 146.101562 25.199219 146.101562 25.050781 C 146.101562 24.898438 145.851562 24.71875 145.550781 24.660156 C 145.25 24.601562 145 24.78125 145 25.050781 Z M 145 25.050781 "/>
<path style=" stroke:none;fill-rule:nonzero;fill:rgb(0%,0%,0%);fill-opacity:1;" d="M 102.101562 25.828125 C 102.199219 26.011719 102.5 26.128906 102.75 26.128906 C 103 26.128906 103.300781 26.011719 103.398438 25.828125 C 103.5 25.648438 103.199219 25.5 102.75 25.5 C 102.300781 25.5 102 25.648438 102.101562 25.828125 Z M 102.101562 25.828125 "/>
<path style=" stroke:none;fill-rule:nonzero;fill:rgb(0%,0%,0%);fill-opacity:1;" d="M 149.5 25.980469 C 149.5 26.25 149.75 26.398438 150.101562 26.339844 C 151 26.160156 151.148438 25.5 150.300781 25.5 C 149.851562 25.5 149.5 25.710938 149.5 25.980469 Z M 149.5 25.980469 "/>
<path style=" stroke:none;fill-rule:nonzero;fill:rgb(0%,0%,0%);fill-opacity:1;" d="M 97.5 26.878906 C 97.5 27.148438 97.75 27.300781 98.101562 27.238281 C 99 27.058594 99.148438 26.398438 98.300781 26.398438 C 97.851562 26.398438 97.5 26.609375 97.5 26.878906 Z M 97.5 26.878906 "/>
<path style=" stroke:none;fill-rule:nonzero;fill:rgb(0%,0%,0%);fill-opacity:1;" d="M 154 26.851562 C 154 27.089844 154.351562 27.300781 154.75 27.300781 C 155.148438 27.300781 155.5 27.089844 155.5 26.851562 C 155.5 26.609375 155.148438 26.398438 154.75 26.398438 C 154.351562 26.398438 154 26.609375 154 26.851562 Z M 154 26.851562 "/>
<path style=" stroke:none;fill-rule:nonzero;fill:rgb(0%,0%,0%);fill-opacity:1;" d="M 93 27.71875 C 93 27.988281 93.351562 28.199219 93.800781 28.199219 C 94.25 28.199219 94.5 28.050781 94.398438 27.839844 C 94.101562 27.300781 93 27.210938 93 27.71875 Z M 93 27.71875 "/>
<path style=" stroke:none;fill-rule:nonzero;fill:rgb(0%,0%,0%);fill-opacity:1;" d="M 158.800781 27.511719 C 158.25 27.839844 158.5 28.199219 159.25 28.199219 C 159.648438 28.199219 160 28.078125 160 27.929688 C 160 27.539062 159.199219 27.269531 158.800781 27.511719 Z M 158.800781 27.511719 "/>
<path style=" stroke:none;fill-rule:nonzero;fill:rgb(0%,0%,0%);fill-opacity:1;" d="M 88.800781 28.710938 C 88.25 29.039062 88.5 29.398438 89.25 29.398438 C 89.648438 29.398438 90 29.28125 90 29.128906 C 90 28.738281 89.199219 28.46875 88.800781 28.710938 Z M 88.800781 28.710938 "/>
<path style=" stroke:none;fill-rule:nonzero;fill:rgb(0%,0%,0%);fill-opacity:1;" d="M 163.300781 28.710938 C 162.75 29.039062 163 29.398438 163.75 29.398438 C 164.148438 29.398438 164.5 29.28125 164.5 29.128906 C 164.5 28.738281 163.699219 28.46875 163.300781 28.710938 Z M 163.300781 28.710938 "/>
<path style=" stroke:none;fill-rule:nonzero;fill:rgb(0%,0%,0%);fill-opacity:1;" d="M 84.5 30.480469 C 84.5 30.75 84.75 30.898438 85.101562 30.839844 C 86 30.660156 86.148438 30 85.300781 30 C 84.851562 30 84.5 30.210938 84.5 30.480469 Z M 84.5 30.480469 "/>
<path style=" stroke:none;fill-rule:nonzero;fill:rgb(0%,0%,0%);fill-opacity:1;" d="M 167 30.449219 C 167 30.691406 167.351562 30.898438 167.75 30.898438 C 168.148438 30.898438 168.5 30.691406 168.5 30.449219 C 168.5 30.210938 168.148438 30 167.75 30 C 167.351562 30 167 30.210938 167 30.449219 Z M 167 30.449219 "/>
<path style=" stroke:none;fill-rule:nonzero;fill:rgb(0%,0%,0%);fill-opacity:1;" d="M 80.25 31.769531 C 79.898438 32.128906 80.851562 32.488281 81.5 32.25 C 82.050781 32.039062 81.699219 31.5 81 31.5 C 80.75 31.5 80.449219 31.621094 80.25 31.769531 Z M 80.25 31.769531 "/>
<path style=" stroke:none;fill-rule:nonzero;fill:rgb(0%,0%,0%);fill-opacity:1;" d="M 171.351562 31.710938 C 170.75 32.039062 170.949219 32.398438 171.75 32.398438 C 172.148438 32.398438 172.5 32.191406 172.5 31.949219 C 172.5 31.46875 171.898438 31.351562 171.351562 31.710938 Z M 171.351562 31.710938 "/>
<path style=" stroke:none;fill-rule:nonzero;fill:rgb(0%,0%,0%);fill-opacity:1;" d="M 76.800781 33.210938 C 76.25 33.539062 76.5 33.898438 77.25 33.898438 C 77.648438 33.898438 78 33.78125 78 33.628906 C 78 33.238281 77.199219 32.96875 76.800781 33.210938 Z M 76.800781 33.210938 "/>
<path style=" stroke:none;fill-rule:nonzero;fill:rgb(0%,0%,0%);fill-opacity:1;" d="M 175.101562 33.628906 C 175.199219 33.808594 175.5 33.929688 175.75 33.929688 C 176 33.929688 176.300781 33.808594 176.398438 33.628906 C 176.5 33.449219 176.199219 33.300781 175.75 33.300781 C 175.300781 33.300781 175 33.449219 175.101562 33.628906 Z M 175.101562 33.628906 "/>
<path style=" stroke:none;fill-rule:nonzero;fill:rgb(0%,0%,0%);fill-opacity:1;" d="M 72.75 35.101562 C 72.550781 35.28125 72.601562 35.578125 72.898438 35.761719 C 73.199219 35.941406 73.5 35.941406 73.75 35.699219 C 73.949219 35.519531 73.898438 35.21875 73.601562 35.039062 C 73.300781 34.859375 73 34.859375 72.75 35.101562 Z M 72.75 35.101562 "/>
<path style=" stroke:none;fill-rule:nonzero;fill:rgb(0%,0%,0%);fill-opacity:1;" d="M 179.101562 35.429688 C 179.199219 35.609375 179.5 35.730469 179.75 35.730469 C 180 35.730469 180.300781 35.609375 180.398438 35.429688 C 180.5 35.25 180.199219 35.101562 179.75 35.101562 C 179.300781 35.101562 179 35.25 179.101562 35.429688 Z M 179.101562 35.429688 "/>
<path style=" stroke:none;fill-rule:nonzero;fill:rgb(0%,0%,0%);fill-opacity:1;" d="M 69 37.378906 C 69 37.890625 70.101562 37.800781 70.398438 37.261719 C 70.5 37.050781 70.25 36.898438 69.800781 36.898438 C 69.351562 36.898438 69 37.109375 69 37.378906 Z M 69 37.378906 "/>
<path style=" stroke:none;fill-rule:nonzero;fill:rgb(0%,0%,0%);fill-opacity:1;" d="M 182.5 37.351562 C 182.5 37.589844 182.851562 37.800781 183.25 37.800781 C 183.648438 37.800781 184 37.589844 184 37.351562 C 184 37.109375 183.648438 36.898438 183.25 36.898438 C 182.851562 36.898438 182.5 37.109375 182.5 37.351562 Z M 182.5 37.351562 "/>
<path style=" stroke:none;fill-rule:nonzero;fill:rgb(0%,0%,0%);fill-opacity:1;" d="M 65.601562 39.328125 C 65.699219 39.511719 66 39.628906 66.25 39.628906 C 66.5 39.628906 66.800781 39.511719 66.898438 39.328125 C 67 39.148438 66.699219 39 66.25 39 C 65.800781 39 65.5 39.148438 65.601562 39.328125 Z M 65.601562 39.328125 "/>
<path style=" stroke:none;fill-rule:nonzero;fill:rgb(0%,0%,0%);fill-opacity:1;" d="M 186 39.480469 C 186 39.75 186.25 39.898438 186.601562 39.839844 C 187.5 39.660156 187.648438 39 186.800781 39 C 186.351562 39 186 39.210938 186 39.480469 Z M 186 39.480469 "/>
<path style=" stroke:none;fill-rule:nonzero;fill:rgb(0%,0%,0%);fill-opacity:1;" d="M 62.5 41.578125 C 62.5 41.851562 62.75 42 63.101562 41.941406 C 64 41.761719 64.148438 41.101562 63.300781 41.101562 C 62.851562 41.101562 62.5 41.308594 62.5 41.578125 Z M 62.5 41.578125 "/>
<path style=" stroke:none;fill-rule:nonzero;fill:rgb(0%,0%,0%);fill-opacity:1;" d="M 189 41.550781 C 189 41.789062 189.351562 42 189.75 42 C 190.148438 42 190.5 41.789062 190.5 41.550781 C 190.5 41.308594 190.148438 41.101562 189.75 41.101562 C 189.351562 41.101562 189 41.308594 189 41.550781 Z M 189 41.550781 "/>
<path style=" stroke:none;fill-rule:nonzero;fill:rgb(0%,0%,0%);fill-opacity:1;" d="M 59.800781 43.410156 C 59.25 43.738281 59.5 44.101562 60.25 44.101562 C 60.648438 44.101562 61 43.980469 61 43.828125 C 61 43.441406 60.199219 43.171875 59.800781 43.410156 Z M 59.800781 43.410156 "/>
<path style=" stroke:none;fill-rule:nonzero;fill:rgb(0%,0%,0%);fill-opacity:1;" d="M 192.25 43.5 C 192.050781 43.679688 192.101562 43.980469 192.398438 44.160156 C 192.699219 44.339844 193 44.339844 193.25 44.101562 C 193.449219 43.921875 193.398438 43.621094 193.101562 43.441406 C 192.800781 43.261719 192.5 43.261719 192.25 43.5 Z M 192.25 43.5 "/>
<path style=" stroke:none;fill-rule:nonzero;fill:rgb(0%,0%,0%);fill-opacity:1;" d="M 56.851562 45.808594 C 56.25 46.140625 56.449219 46.5 57.25 46.5 C 57.648438 46.5 58 46.289062 58 46.050781 C 58 45.570312 57.398438 45.449219 56.851562 45.808594 Z M 56.851562 45.808594 "/>
<path style=" stroke:none;fill-rule:nonzero;fill:rgb(0%,0%,0%);fill-opacity:1;" d="M 195 46.050781 C 195 46.320312 195.25 46.5 195.550781 46.441406 C 195.851562 46.378906 196.101562 46.199219 196.101562 46.050781 C 196.101562 45.898438 195.851562 45.71875 195.550781 45.660156 C 195.25 45.601562 195 45.78125 195 46.050781 Z M 195 46.050781 "/>
<path style=" stroke:none;fill-rule:nonzero;fill:rgb(0%,0%,0%);fill-opacity:1;" d="M 54.25 48.300781 C 54.050781 48.480469 54.101562 48.78125 54.398438 48.960938 C 54.699219 49.140625 55 49.140625 55.25 48.898438 C 55.449219 48.71875 55.398438 48.421875 55.101562 48.238281 C 54.800781 48.058594 54.5 48.058594 54.25 48.300781 Z M 54.25 48.300781 "/>
<path style=" stroke:none;fill-rule:nonzero;fill:rgb(0%,0%,0%);fill-opacity:1;" d="M 197.601562 48.628906 C 197.699219 48.808594 198 48.929688 198.25 48.929688 C 198.5 48.929688 198.800781 48.808594 198.898438 48.628906 C 199 48.449219 198.699219 48.300781 198.25 48.300781 C 197.800781 48.300781 197.5 48.449219 197.601562 48.628906 Z M 197.601562 48.628906 "/>
<path style=" stroke:none;fill-rule:nonzero;fill:rgb(0%,0%,0%);fill-opacity:1;" d="M 51.75 50.96875 C 51.398438 51.328125 52.351562 51.691406 53 51.449219 C 53.550781 51.238281 53.199219 50.699219 52.5 50.699219 C 52.25 50.699219 51.949219 50.820312 51.75 50.96875 Z M 51.75 50.96875 "/>
<path style=" stroke:none;fill-rule:nonzero;fill:rgb(0%,0%,0%);fill-opacity:1;" d="M 199.851562 50.910156 C 199.25 51.238281 199.449219 51.601562 200.25 51.601562 C 200.648438 51.601562 201 51.390625 201 51.148438 C 201 50.671875 200.398438 50.550781 199.851562 50.910156 Z M 199.851562 50.910156 "/>
<path style=" stroke:none;fill-rule:nonzero;fill:rgb(0%,0%,0%);fill-opacity:1;" d="M 102.800781 57.058594 C 98.398438 66.121094 97.550781 69.148438 98.449219 72.148438 C 99.851562 76.738281 105 80.609375 112.601562 82.800781 C 122.148438 85.558594 132.300781 85.53125 142 82.738281 C 155.601562 78.808594 160.648438 69.988281 153.949219 61.859375 C 150.300781 57.359375 143.351562 54.179688 135.648438 53.371094 C 129.351562 52.710938 122.898438 54.03125 118.550781 56.851562 C 112.75 60.660156 111.101562 65.671875 114.101562 70.441406 C 115.351562 72.480469 117.898438 74.191406 121.199219 75.238281 C 123.449219 75.960938 124.300781 76.050781 128.5 76.050781 C 132.398438 76.050781 133.699219 75.929688 135.75 75.359375 C 139.199219 74.398438 141.800781 72.78125 142.800781 71.011719 L 143.601562 69.539062 L 144.699219 70.171875 C 145.300781 70.53125 146.199219 70.800781 146.648438 70.800781 C 148.25 70.800781 147.5 69.628906 144.601562 67.589844 C 138.699219 63.480469 136.699219 62.851562 130.699219 63.058594 C 128.148438 63.179688 126.300781 63.449219 124.300781 64.019531 C 121.550781 64.828125 118.5 66.570312 118.5 67.351562 C 118.5 68.21875 120.601562 71.128906 121.898438 72.058594 C 123.050781 72.871094 123.101562 72.960938 122.148438 72.660156 C 120.75 72.210938 118.5 70.558594 117.699219 69.421875 C 115.75 66.628906 116.449219 62.851562 119.5 60 C 122.800781 56.941406 126.550781 55.710938 132.550781 55.710938 C 135.75 55.679688 136.800781 55.828125 139.601562 56.609375 C 145.199219 58.199219 149.601562 61.078125 151.550781 64.410156 C 155.351562 71.011719 150.898438 77.429688 140.351562 80.550781 C 131.800781 83.070312 122.699219 83.070312 114.148438 80.550781 C 109.648438 79.199219 105.050781 76.351562 103.449219 73.828125 C 101.648438 71.128906 101.601562 67.078125 103.25 62.101562 C 104.449219 58.378906 105.449219 53.101562 104.949219 53.101562 C 104.800781 53.101562 103.851562 54.898438 102.800781 57.058594 Z M 102.800781 57.058594 "/>
<path style=" stroke:none;fill-rule:nonzero;fill:rgb(0%,0%,0%);fill-opacity:1;" d="M 49.851562 53.578125 C 49.449219 53.820312 49.898438 54.300781 50.550781 54.300781 C 50.800781 54.300781 51 54.089844 51 53.851562 C 51 53.398438 50.398438 53.25 49.851562 53.578125 Z M 49.851562 53.578125 "/>
<path style=" stroke:none;fill-rule:nonzero;fill:rgb(0%,0%,0%);fill-opacity:1;" d="M 201.601562 53.761719 C 201.898438 54.300781 203 54.390625 203 53.878906 C 203 53.609375 202.648438 53.398438 202.199219 53.398438 C 201.75 53.398438 201.5 53.550781 201.601562 53.761719 Z M 201.601562 53.761719 "/>
<path style=" stroke:none;fill-rule:nonzero;fill:rgb(0%,0%,0%);fill-opacity:1;" d="M 48.25 56.101562 C 48.050781 56.28125 48.101562 56.578125 48.398438 56.761719 C 48.699219 56.941406 49 56.941406 49.25 56.699219 C 49.449219 56.519531 49.398438 56.21875 49.101562 56.039062 C 48.800781 55.859375 48.5 55.859375 48.25 56.101562 Z M 48.25 56.101562 "/>
<path style=" stroke:none;fill-rule:nonzero;fill:rgb(0%,0%,0%);fill-opacity:1;" d="M 203.5 56.578125 C 203.5 57.089844 204.601562 57 204.898438 56.460938 C 205 56.25 204.75 56.101562 204.300781 56.101562 C 203.851562 56.101562 203.5 56.308594 203.5 56.578125 Z M 203.5 56.578125 "/>
<path style=" stroke:none;fill-rule:nonzero;fill:rgb(0%,0%,0%);fill-opacity:1;" d="M 46.601562 59.128906 C 46.699219 59.308594 47 59.429688 47.25 59.429688 C 47.5 59.429688 47.800781 59.308594 47.898438 59.128906 C 48 58.949219 47.699219 58.800781 47.25 58.800781 C 46.800781 58.800781 46.5 58.949219 46.601562 59.128906 Z M 46.601562 59.128906 "/>
<path style=" stroke:none;fill-rule:nonzero;fill:rgb(0%,0%,0%);fill-opacity:1;" d="M 205 59.28125 C 205 59.550781 205.25 59.699219 205.601562 59.640625 C 206.5 59.460938 206.648438 58.800781 205.800781 58.800781 C 205.351562 58.800781 205 59.011719 205 59.28125 Z M 205 59.28125 "/>
<path style=" stroke:none;fill-rule:nonzero;fill:rgb(0%,0%,0%);fill-opacity:1;" d="M 45.25 61.769531 C 44.898438 62.128906 45.851562 62.488281 46.5 62.25 C 47.050781 62.039062 46.699219 61.5 46 61.5 C 45.75 61.5 45.449219 61.621094 45.25 61.769531 Z M 45.25 61.769531 "/>
<path style=" stroke:none;fill-rule:nonzero;fill:rgb(0%,0%,0%);fill-opacity:1;" d="M 206.351562 61.679688 C 205.949219 61.921875 206.398438 62.398438 207.050781 62.398438 C 207.300781 62.398438 207.5 62.191406 207.5 61.949219 C 207.5 61.5 206.898438 61.351562 206.351562 61.679688 Z M 206.351562 61.679688 "/>
<path style=" stroke:none;fill-rule:nonzero;fill:rgb(0%,0%,0%);fill-opacity:1;" d="M 44.351562 64.378906 C 43.949219 64.621094 44.398438 65.101562 45.050781 65.101562 C 45.300781 65.101562 45.5 64.890625 45.5 64.648438 C 45.5 64.199219 44.898438 64.050781 44.351562 64.378906 Z M 44.351562 64.378906 "/>
<path style=" stroke:none;fill-rule:nonzero;fill:rgb(0%,0%,0%);fill-opacity:1;" d="M 207.101562 64.828125 C 207.199219 65.011719 207.5 65.128906 207.75 65.128906 C 208 65.128906 208.300781 65.011719 208.398438 64.828125 C 208.5 64.648438 208.199219 64.5 207.75 64.5 C 207.300781 64.5 207 64.648438 207.101562 64.828125 Z M 207.101562 64.828125 "/>
<path style=" stroke:none;fill-rule:nonzero;fill:rgb(0%,0%,0%);fill-opacity:1;" d="M 43.5 67.648438 C 43.5 67.890625 43.851562 68.101562 44.25 68.101562 C 44.648438 68.101562 45 67.890625 45 67.648438 C 45 67.410156 44.648438 67.199219 44.25 67.199219 C 43.851562 67.199219 43.5 67.410156 43.5 67.648438 Z M 43.5 67.648438 "/>
<path style=" stroke:none;fill-rule:nonzero;fill:rgb(0%,0%,0%);fill-opacity:1;" d="M 208 67.621094 C 208 67.890625 208.351562 68.101562 208.800781 68.101562 C 209.648438 68.101562 209.5 67.441406 208.601562 67.261719 C 208.25 67.199219 208 67.351562 208 67.621094 Z M 208 67.621094 "/>
<path style=" stroke:none;fill-rule:nonzero;fill:rgb(0%,0%,0%);fill-opacity:1;" d="M 43.25 70.199219 C 43.050781 70.378906 43.101562 70.679688 43.398438 70.859375 C 43.699219 71.039062 44 71.039062 44.25 70.800781 C 44.449219 70.621094 44.398438 70.320312 44.101562 70.140625 C 43.800781 69.960938 43.5 69.960938 43.25 70.199219 Z M 43.25 70.199219 "/>
<path style=" stroke:none;fill-rule:nonzero;fill:rgb(0%,0%,0%);fill-opacity:1;" d="M 208.25 70.46875 C 207.898438 70.828125 208.851562 71.191406 209.5 70.949219 C 210.050781 70.738281 209.699219 70.199219 209 70.199219 C 208.75 70.199219 208.449219 70.320312 208.25 70.46875 Z M 208.25 70.46875 "/>
<path style=" stroke:none;fill-rule:nonzero;fill:rgb(0%,0%,0%);fill-opacity:1;" d="M 51.851562 72.238281 L 50 73.378906 L 52.148438 74.640625 L 54.300781 75.898438 L 58.199219 73.5 L 56.25 72.300781 C 55.199219 71.640625 54.148438 71.101562 54 71.101562 C 53.851562 71.101562 52.851562 71.609375 51.851562 72.238281 Z M 55.75 72.601562 L 57.199219 73.5 L 55.75 74.398438 L 54.300781 75.300781 L 52.648438 74.339844 L 51 73.378906 L 52.351562 72.539062 C 53.101562 72.089844 53.851562 71.699219 54 71.699219 C 54.148438 71.699219 54.949219 72.089844 55.75 72.601562 Z M 55.75 72.601562 "/>
<path style=" stroke:none;fill-rule:nonzero;fill:rgb(0%,0%,0%);fill-opacity:1;" d="M 196.351562 72.238281 L 194.5 73.378906 L 196.648438 74.640625 L 198.800781 75.898438 L 200.898438 74.609375 L 203 73.320312 L 201.101562 72.210938 C 200.050781 71.609375 199 71.101562 198.699219 71.101562 C 198.449219 71.101562 197.351562 71.609375 196.351562 72.238281 Z M 200.199219 74.398438 L 198.699219 75.300781 L 197.25 74.398438 L 195.800781 73.5 L 197.25 72.601562 L 198.699219 71.699219 L 200.199219 72.601562 L 201.75 73.5 Z M 200.199219 74.398438 "/>
<path style=" stroke:none;fill-rule:nonzero;fill:rgb(0%,0%,0%);fill-opacity:1;" d="M 43 73.351562 C 43 73.589844 43.351562 73.800781 43.75 73.800781 C 44.148438 73.800781 44.5 73.589844 44.5 73.351562 C 44.5 73.109375 44.148438 72.898438 43.75 72.898438 C 43.351562 72.898438 43 73.109375 43 73.351562 Z M 43 73.351562 "/>
<path style=" stroke:none;fill-rule:nonzero;fill:rgb(0%,0%,0%);fill-opacity:1;" d="M 208.5 73.5 C 208.5 73.890625 208.75 74.101562 209.148438 74.011719 C 209.449219 73.949219 209.75 73.710938 209.75 73.5 C 209.75 73.289062 209.449219 73.050781 209.148438 72.960938 C 208.75 72.898438 208.5 73.109375 208.5 73.5 Z M 208.5 73.5 "/>
<path style=" stroke:none;fill-rule:nonzero;fill:rgb(0%,0%,0%);fill-opacity:1;" d="M 43.101562 76.261719 C 43.398438 76.800781 44.5 76.890625 44.5 76.378906 C 44.5 76.109375 44.148438 75.898438 43.699219 75.898438 C 43.25 75.898438 43 76.050781 43.101562 76.261719 Z M 43.101562 76.261719 "/>
<path style=" stroke:none;fill-rule:nonzero;fill:rgb(0%,0%,0%);fill-opacity:1;" d="M 208.351562 76.078125 C 207.949219 76.320312 208.398438 76.800781 209.050781 76.800781 C 209.300781 76.800781 209.5 76.589844 209.5 76.351562 C 209.5 75.898438 208.898438 75.75 208.351562 76.078125 Z M 208.351562 76.078125 "/>
<path style=" stroke:none;fill-rule:nonzero;fill:rgb(0%,0%,0%);fill-opacity:1;" d="M 43.800781 78.808594 C 43.25 79.140625 43.5 79.5 44.25 79.5 C 44.648438 79.5 45 79.378906 45 79.230469 C 45 78.839844 44.199219 78.570312 43.800781 78.808594 Z M 43.800781 78.808594 "/>
<path style=" stroke:none;fill-rule:nonzero;fill:rgb(0%,0%,0%);fill-opacity:1;" d="M 207.75 79.171875 C 207.398438 79.53125 208.351562 79.890625 209 79.648438 C 209.550781 79.441406 209.199219 78.898438 208.5 78.898438 C 208.25 78.898438 207.949219 79.019531 207.75 79.171875 Z M 207.75 79.171875 "/>
<path style=" stroke:none;fill-rule:nonzero;fill:rgb(0%,0%,0%);fill-opacity:1;" d="M 44.101562 81.960938 C 44.398438 82.5 45.5 82.589844 45.5 82.078125 C 45.5 81.808594 45.148438 81.601562 44.699219 81.601562 C 44.25 81.601562 44 81.75 44.101562 81.960938 Z M 44.101562 81.960938 "/>
<path style=" stroke:none;fill-rule:nonzero;fill:rgb(0%,0%,0%);fill-opacity:1;" d="M 207.300781 81.808594 C 206.75 82.140625 207 82.5 207.75 82.5 C 208.148438 82.5 208.5 82.378906 208.5 82.230469 C 208.5 81.839844 207.699219 81.570312 207.300781 81.808594 Z M 207.300781 81.808594 "/>
<path style=" stroke:none;fill-rule:nonzero;fill:rgb(0%,0%,0%);fill-opacity:1;" d="M 45.351562 84.511719 C 44.75 84.839844 44.949219 85.199219 45.75 85.199219 C 46.148438 85.199219 46.5 84.988281 46.5 84.75 C 46.5 84.269531 45.898438 84.148438 45.351562 84.511719 Z M 45.351562 84.511719 "/>
<path style=" stroke:none;fill-rule:nonzero;fill:rgb(0%,0%,0%);fill-opacity:1;" d="M 206.101562 84.960938 C 206.398438 85.5 207.5 85.589844 207.5 85.078125 C 207.5 84.808594 207.148438 84.601562 206.699219 84.601562 C 206.25 84.601562 206 84.75 206.101562 84.960938 Z M 206.101562 84.960938 "/>
<path style=" stroke:none;fill-rule:nonzero;fill:rgb(0%,0%,0%);fill-opacity:1;" d="M 46.75 87.300781 C 46.550781 87.480469 46.601562 87.78125 46.898438 87.960938 C 47.199219 88.140625 47.5 88.140625 47.75 87.898438 C 47.949219 87.71875 47.898438 87.421875 47.601562 87.238281 C 47.300781 87.058594 47 87.058594 46.75 87.300781 Z M 46.75 87.300781 "/>
<path style=" stroke:none;fill-rule:nonzero;fill:rgb(0%,0%,0%);fill-opacity:1;" d="M 205 87.71875 C 205 87.988281 205.351562 88.199219 205.800781 88.199219 C 206.648438 88.199219 206.5 87.539062 205.601562 87.359375 C 205.25 87.300781 205 87.449219 205 87.71875 Z M 205 87.71875 "/>
<path style=" stroke:none;fill-rule:nonzero;fill:rgb(0%,0%,0%);fill-opacity:1;" d="M 48 90.480469 C 48 90.988281 49.101562 90.898438 49.398438 90.359375 C 49.5 90.148438 49.25 90 48.800781 90 C 48.351562 90 48 90.210938 48 90.480469 Z M 48 90.480469 "/>
<path style=" stroke:none;fill-rule:nonzero;fill:rgb(0%,0%,0%);fill-opacity:1;" d="M 203.5 90.421875 C 203.5 90.691406 203.851562 90.898438 204.300781 90.898438 C 205.148438 90.898438 205 90.238281 204.101562 90.058594 C 203.75 90 203.5 90.148438 203.5 90.421875 Z M 203.5 90.421875 "/>
<path style=" stroke:none;fill-rule:nonzero;fill:rgb(0%,0%,0%);fill-opacity:1;" d="M 49.601562 93.058594 C 49.898438 93.601562 51 93.691406 51 93.179688 C 51 92.910156 50.648438 92.699219 50.199219 92.699219 C 49.75 92.699219 49.5 92.851562 49.601562 93.058594 Z M 49.601562 93.058594 "/>
<path style=" stroke:none;fill-rule:nonzero;fill:rgb(0%,0%,0%);fill-opacity:1;" d="M 201.851562 92.910156 C 201.25 93.238281 201.449219 93.601562 202.25 93.601562 C 202.648438 93.601562 203 93.390625 203 93.148438 C 203 92.671875 202.398438 92.550781 201.851562 92.910156 Z M 201.851562 92.910156 "/>
<path style=" stroke:none;fill-rule:nonzero;fill:rgb(0%,0%,0%);fill-opacity:1;" d="M 51.800781 95.308594 C 51.25 95.640625 51.5 96 52.25 96 C 52.648438 96 53 95.878906 53 95.730469 C 53 95.339844 52.199219 95.070312 51.800781 95.308594 Z M 51.800781 95.308594 "/>
<path style=" stroke:none;fill-rule:nonzero;fill:rgb(0%,0%,0%);fill-opacity:1;" d="M 199.5 95.851562 C 199.5 96.089844 199.851562 96.300781 200.25 96.300781 C 200.648438 96.300781 201 96.089844 201 95.851562 C 201 95.609375 200.648438 95.398438 200.25 95.398438 C 199.851562 95.398438 199.5 95.609375 199.5 95.851562 Z M 199.5 95.851562 "/>
<path style=" stroke:none;fill-rule:nonzero;fill:rgb(0%,0%,0%);fill-opacity:1;" d="M 54 98.25 C 54 98.488281 54.351562 98.699219 54.75 98.699219 C 55.148438 98.699219 55.5 98.488281 55.5 98.25 C 55.5 98.011719 55.148438 97.800781 54.75 97.800781 C 54.351562 97.800781 54 98.011719 54 98.25 Z M 54 98.25 "/>
<path style=" stroke:none;fill-rule:nonzero;fill:rgb(0%,0%,0%);fill-opacity:1;" d="M 197.351562 97.980469 C 196.949219 98.21875 197.398438 98.699219 198.050781 98.699219 C 198.300781 98.699219 198.5 98.488281 198.5 98.25 C 198.5 97.800781 197.898438 97.648438 197.351562 97.980469 Z M 197.351562 97.980469 "/>
<path style=" stroke:none;fill-rule:nonzero;fill:rgb(0%,0%,0%);fill-opacity:1;" d="M 56.5 100.648438 C 56.5 100.890625 56.851562 101.101562 57.25 101.101562 C 57.648438 101.101562 58 100.890625 58 100.648438 C 58 100.410156 57.648438 100.199219 57.25 100.199219 C 56.851562 100.199219 56.5 100.410156 56.5 100.648438 Z M 56.5 100.648438 "/>
<path style=" stroke:none;fill-rule:nonzero;fill:rgb(0%,0%,0%);fill-opacity:1;" d="M 194.800781 100.410156 C 194.25 100.738281 194.5 101.101562 195.25 101.101562 C 195.648438 101.101562 196 100.980469 196 100.828125 C 196 100.441406 195.199219 100.171875 194.800781 100.410156 Z M 194.800781 100.410156 "/>
<path style=" stroke:none;fill-rule:nonzero;fill:rgb(0%,0%,0%);fill-opacity:1;" d="M 59.25 102.871094 C 58.898438 103.230469 59.851562 103.589844 60.5 103.351562 C 61.050781 103.140625 60.699219 102.601562 60 102.601562 C 59.75 102.601562 59.449219 102.71875 59.25 102.871094 Z M 59.25 102.871094 "/>
<path style=" stroke:none;fill-rule:nonzero;fill:rgb(0%,0%,0%);fill-opacity:1;" d="M 192.300781 102.808594 C 191.75 103.140625 192 103.5 192.75 103.5 C 193.148438 103.5 193.5 103.378906 193.5 103.230469 C 193.5 102.839844 192.699219 102.570312 192.300781 102.808594 Z M 192.300781 102.808594 "/>
<path style=" stroke:none;fill-rule:nonzero;fill:rgb(0%,0%,0%);fill-opacity:1;" d="M 62.5 105.300781 C 62.5 105.449219 62.75 105.601562 63 105.601562 C 63.300781 105.601562 63.5 105.449219 63.5 105.300781 C 63.5 105.121094 63.300781 105 63 105 C 62.75 105 62.5 105.121094 62.5 105.300781 Z M 62.5 105.300781 "/>
<path style=" stroke:none;fill-rule:nonzero;fill:rgb(0%,0%,0%);fill-opacity:1;" d="M 189 105.480469 C 189 105.75 189.25 105.898438 189.601562 105.839844 C 190.5 105.660156 190.648438 105 189.800781 105 C 189.351562 105 189 105.210938 189 105.480469 Z M 189 105.480469 "/>
<path style=" stroke:none;fill-rule:nonzero;fill:rgb(0%,0%,0%);fill-opacity:1;" d="M 65.5 107.578125 C 65.5 107.851562 65.75 108 66.101562 107.941406 C 67 107.761719 67.148438 107.101562 66.300781 107.101562 C 65.851562 107.101562 65.5 107.308594 65.5 107.578125 Z M 65.5 107.578125 "/>
<path style=" stroke:none;fill-rule:nonzero;fill:rgb(0%,0%,0%);fill-opacity:1;" d="M 185.75 107.371094 C 185.398438 107.730469 186.351562 108.089844 187 107.851562 C 187.550781 107.640625 187.199219 107.101562 186.5 107.101562 C 186.25 107.101562 185.949219 107.21875 185.75 107.371094 Z M 185.75 107.371094 "/>
<path style=" stroke:none;fill-rule:nonzero;fill:rgb(0%,0%,0%);fill-opacity:1;" d="M 69.25 109.199219 C 69.050781 109.378906 69.101562 109.679688 69.398438 109.859375 C 69.699219 110.039062 70 110.039062 70.25 109.800781 C 70.449219 109.621094 70.398438 109.320312 70.101562 109.140625 C 69.800781 108.960938 69.5 108.960938 69.25 109.199219 Z M 69.25 109.199219 "/>
<path style=" stroke:none;fill-rule:nonzero;fill:rgb(0%,0%,0%);fill-opacity:1;" d="M 182.5 109.648438 C 182.5 109.921875 182.75 110.101562 183.050781 110.039062 C 183.351562 109.980469 183.601562 109.800781 183.601562 109.648438 C 183.601562 109.5 183.351562 109.320312 183.050781 109.261719 C 182.75 109.199219 182.5 109.378906 182.5 109.648438 Z M 182.5 109.648438 "/>
<path style=" stroke:none;fill-rule:nonzero;fill:rgb(0%,0%,0%);fill-opacity:1;" d="M 72.5 111.480469 C 72.5 111.988281 73.601562 111.898438 73.898438 111.359375 C 74 111.148438 73.75 111 73.300781 111 C 72.851562 111 72.5 111.210938 72.5 111.480469 Z M 72.5 111.480469 "/>
<path style=" stroke:none;fill-rule:nonzero;fill:rgb(0%,0%,0%);fill-opacity:1;" d="M 178.75 111.269531 C 178.398438 111.628906 179.351562 111.988281 180 111.75 C 180.550781 111.539062 180.199219 111 179.5 111 C 179.25 111 178.949219 111.121094 178.75 111.269531 Z M 178.75 111.269531 "/>
<path style=" stroke:none;fill-rule:nonzero;fill:rgb(0%,0%,0%);fill-opacity:1;" d="M 76.351562 112.980469 C 75.949219 113.21875 76.398438 113.699219 77.050781 113.699219 C 77.300781 113.699219 77.5 113.488281 77.5 113.25 C 77.5 112.800781 76.898438 112.648438 76.351562 112.980469 Z M 76.351562 112.980469 "/>
<path style=" stroke:none;fill-rule:nonzero;fill:rgb(0%,0%,0%);fill-opacity:1;" d="M 175 113.21875 C 175 113.488281 175.351562 113.699219 175.800781 113.699219 C 176.648438 113.699219 176.5 113.039062 175.601562 112.859375 C 175.25 112.800781 175 112.949219 175 113.21875 Z M 175 113.21875 "/>
<path style=" stroke:none;fill-rule:nonzero;fill:rgb(0%,0%,0%);fill-opacity:1;" d="M 80.300781 114.511719 C 79.75 114.839844 80 115.199219 80.75 115.199219 C 81.148438 115.199219 81.5 115.078125 81.5 114.929688 C 81.5 114.539062 80.699219 114.269531 80.300781 114.511719 Z M 80.300781 114.511719 "/>
<path style=" stroke:none;fill-rule:nonzero;fill:rgb(0%,0%,0%);fill-opacity:1;" d="M 171.101562 114.929688 C 171.199219 115.109375 171.5 115.230469 171.75 115.230469 C 172 115.230469 172.300781 115.109375 172.398438 114.929688 C 172.5 114.75 172.199219 114.601562 171.75 114.601562 C 171.300781 114.601562 171 114.75 171.101562 114.929688 Z M 171.101562 114.929688 "/>
<path style=" stroke:none;fill-rule:nonzero;fill:rgb(0%,0%,0%);fill-opacity:1;" d="M 84.300781 116.011719 C 83.75 116.339844 84 116.699219 84.75 116.699219 C 85.148438 116.699219 85.5 116.578125 85.5 116.429688 C 85.5 116.039062 84.699219 115.769531 84.300781 116.011719 Z M 84.300781 116.011719 "/>
<path style=" stroke:none;fill-rule:nonzero;fill:rgb(0%,0%,0%);fill-opacity:1;" d="M 167 116.578125 C 167 116.851562 167.25 117 167.601562 116.941406 C 168.5 116.761719 168.648438 116.101562 167.800781 116.101562 C 167.351562 116.101562 167 116.308594 167 116.578125 Z M 167 116.578125 "/>
<path style=" stroke:none;fill-rule:nonzero;fill:rgb(0%,0%,0%);fill-opacity:1;" d="M 88.5 117.75 C 88.5 117.988281 88.851562 118.199219 89.25 118.199219 C 89.648438 118.199219 90 117.988281 90 117.75 C 90 117.511719 89.648438 117.300781 89.25 117.300781 C 88.851562 117.300781 88.5 117.511719 88.5 117.75 Z M 88.5 117.75 "/>
<path style=" stroke:none;fill-rule:nonzero;fill:rgb(0%,0%,0%);fill-opacity:1;" d="M 162.851562 117.511719 C 162.25 117.839844 162.449219 118.199219 163.25 118.199219 C 163.648438 118.199219 164 117.988281 164 117.75 C 164 117.269531 163.398438 117.148438 162.851562 117.511719 Z M 162.851562 117.511719 "/>
<path style=" stroke:none;fill-rule:nonzero;fill:rgb(0%,0%,0%);fill-opacity:1;" d="M 92.75 118.769531 C 92.398438 119.128906 93.351562 119.488281 94 119.25 C 94.550781 119.039062 94.199219 118.5 93.5 118.5 C 93.25 118.5 92.949219 118.621094 92.75 118.769531 Z M 92.75 118.769531 "/>
<path style=" stroke:none;fill-rule:nonzero;fill:rgb(0%,0%,0%);fill-opacity:1;" d="M 158.5 118.949219 C 158.5 119.21875 158.75 119.398438 159.050781 119.339844 C 159.351562 119.28125 159.601562 119.101562 159.601562 118.949219 C 159.601562 118.800781 159.351562 118.621094 159.050781 118.558594 C 158.75 118.5 158.5 118.679688 158.5 118.949219 Z M 158.5 118.949219 "/>
<path style=" stroke:none;fill-rule:nonzero;fill:rgb(0%,0%,0%);fill-opacity:1;" d="M 97.351562 119.878906 C 96.949219 120.121094 97.398438 120.601562 98.050781 120.601562 C 98.300781 120.601562 98.5 120.390625 98.5 120.148438 C 98.5 119.699219 97.898438 119.550781 97.351562 119.878906 Z M 97.351562 119.878906 "/>
<path style=" stroke:none;fill-rule:nonzero;fill:rgb(0%,0%,0%);fill-opacity:1;" d="M 154 120.148438 C 154 120.421875 154.25 120.601562 154.550781 120.539062 C 154.851562 120.480469 155.101562 120.300781 155.101562 120.148438 C 155.101562 120 154.851562 119.820312 154.550781 119.761719 C 154.25 119.699219 154 119.878906 154 120.148438 Z M 154 120.148438 "/>
<path style=" stroke:none;fill-rule:nonzero;fill:rgb(0%,0%,0%);fill-opacity:1;" d="M 102 121.050781 C 102 121.320312 102.25 121.5 102.550781 121.441406 C 102.851562 121.378906 103.101562 121.199219 103.101562 121.050781 C 103.101562 120.898438 102.851562 120.71875 102.550781 120.660156 C 102.25 120.601562 102 120.78125 102 121.050781 Z M 102 121.050781 "/>
<path style=" stroke:none;fill-rule:nonzero;fill:rgb(0%,0%,0%);fill-opacity:1;" d="M 149.25 120.871094 C 148.898438 121.230469 149.851562 121.589844 150.5 121.351562 C 151.050781 121.140625 150.699219 120.601562 150 120.601562 C 149.75 120.601562 149.449219 120.71875 149.25 120.871094 Z M 149.25 120.871094 "/>
<path style=" stroke:none;fill-rule:nonzero;fill:rgb(0%,0%,0%);fill-opacity:1;" d="M 106.5 121.621094 C 106.5 121.890625 106.851562 122.101562 107.300781 122.101562 C 107.75 122.101562 108 121.949219 107.898438 121.738281 C 107.601562 121.199219 106.5 121.109375 106.5 121.621094 Z M 106.5 121.621094 "/>
<path style=" stroke:none;fill-rule:nonzero;fill:rgb(0%,0%,0%);fill-opacity:1;" d="M 144.800781 121.410156 C 144.25 121.738281 144.5 122.101562 145.25 122.101562 C 145.648438 122.101562 146 121.980469 146 121.828125 C 146 121.441406 145.199219 121.171875 144.800781 121.410156 Z M 144.800781 121.410156 "/>
<path style=" stroke:none;fill-rule:nonzero;fill:rgb(0%,0%,0%);fill-opacity:1;" d="M 111.351562 122.011719 C 110.75 122.339844 110.949219 122.699219 111.75 122.699219 C 112.148438 122.699219 112.5 122.488281 112.5 122.25 C 112.5 121.769531 111.898438 121.648438 111.351562 122.011719 Z M 111.351562 122.011719 "/>
<path style=" stroke:none;fill-rule:nonzero;fill:rgb(0%,0%,0%);fill-opacity:1;" d="M 140 122.21875 C 140 122.488281 140.351562 122.699219 140.800781 122.699219 C 141.648438 122.699219 141.5 122.039062 140.601562 121.859375 C 140.25 121.800781 140 121.949219 140 122.21875 Z M 140 122.21875 "/>
<path style=" stroke:none;fill-rule:nonzero;fill:rgb(0%,0%,0%);fill-opacity:1;" d="M 116.101562 122.730469 C 116.199219 122.910156 116.5 123.03125 116.75 123.03125 C 117 123.03125 117.300781 122.910156 117.398438 122.730469 C 117.5 122.550781 117.199219 122.398438 116.75 122.398438 C 116.300781 122.398438 116 122.550781 116.101562 122.730469 Z M 116.101562 122.730469 "/>
<path style=" stroke:none;fill-rule:nonzero;fill:rgb(0%,0%,0%);fill-opacity:1;" d="M 120.800781 122.640625 C 120.648438 122.820312 120.75 123.058594 121.050781 123.148438 C 121.800781 123.449219 122.300781 123.058594 121.648438 122.671875 C 121.300781 122.460938 121 122.460938 120.800781 122.640625 Z M 120.800781 122.640625 "/>
<path style=" stroke:none;fill-rule:nonzero;fill:rgb(0%,0%,0%);fill-opacity:1;" d="M 130.800781 122.609375 C 130.25 122.941406 130.5 123.300781 131.25 123.300781 C 131.648438 123.300781 132 123.179688 132 123.03125 C 132 122.640625 131.199219 122.371094 130.800781 122.609375 Z M 130.800781 122.609375 "/>
<path style=" stroke:none;fill-rule:nonzero;fill:rgb(0%,0%,0%);fill-opacity:1;" d="M 135.101562 122.730469 C 135.199219 122.910156 135.5 123.03125 135.75 123.03125 C 136 123.03125 136.300781 122.910156 136.398438 122.730469 C 136.5 122.550781 136.199219 122.398438 135.75 122.398438 C 135.300781 122.398438 135 122.550781 135.101562 122.730469 Z M 135.101562 122.730469 "/>
<path style=" stroke:none;fill-rule:nonzero;fill:rgb(0%,0%,0%);fill-opacity:1;" d="M 125.601562 123.03125 C 125.699219 123.210938 126 123.328125 126.25 123.328125 C 126.5 123.328125 126.800781 123.210938 126.898438 123.03125 C 127 122.851562 126.699219 122.699219 126.25 122.699219 C 125.800781 122.699219 125.5 122.851562 125.601562 123.03125 Z M 125.601562 123.03125 "/>
</g>
</svg>
